<?xml version="1.0" standalone="no"?>
<!DOCTYPE svg PUBLIC "-//W3C//DTD SVG 20010904//EN"
 "http://www.w3.org/TR/2001/REC-SVG-20010904/DTD/svg10.dtd">
<svg version="1.0" xmlns="http://www.w3.org/2000/svg"
 width="1024.000000pt" height="1024.000000pt" viewBox="0 0 1024.000000 1024.000000"
 preserveAspectRatio="xMidYMid meet">
<metadata>
Created by potrace 1.11, written by Peter Selinger 2001-2013
</metadata>
<g transform="translate(0.000000,1024.000000) scale(0.100000,-0.100000)"
fill="#000000" stroke="none">
<path d="M4930 10001 c-625 -217 -4226 -1487 -4257 -1502 -87 -42 -153 -144
-160 -249 -3 -43 97 -1025 297 -2915 296 -2802 302 -2851 329 -2911 17 -37 45
-75 72 -98 44 -38 3682 -2047 3789 -2092 69 -29 160 -32 227 -6 72 28 3683
2069 3716 2100 35 33 75 100 87 144 14 49 700 5695 700 5755 0 122 -88 249
-200 290 -30 11 -1027 355 -2215 764 -2432 837 -2227 775 -2385 720z m435
-1476 c119 -21 242 -56 347 -100 l86 -36 -32 -72 c-56 -123 -62 -111 59 -141
506 -127 947 -364 1241 -668 137 -142 186 -230 188 -340 1 -61 -2 -70 -26 -95
-34 -34 -116 -42 -200 -20 -32 8 -58 12 -58 7 0 -4 18 -54 39 -111 136 -361
165 -701 90 -1041 -47 -217 -11 -336 202 -666 136 -210 179 -296 186 -370 5
-55 4 -61 -27 -96 -38 -42 -87 -70 -179 -100 -56 -18 -66 -25 -73 -51 -12 -43
6 -109 51 -185 21 -36 42 -75 45 -87 9 -29 -12 -68 -63 -117 l-40 -39 35 -41
c19 -22 37 -51 41 -63 11 -48 -28 -97 -111 -140 -17 -9 -18 -25 -20 -179 -2
-196 -12 -231 -82 -292 -79 -70 -185 -83 -470 -58 -136 12 -201 13 -260 6
-149 -19 -250 -91 -314 -224 -36 -77 -50 -131 -99 -391 -22 -115 -50 -243 -62
-282 l-22 -73 -1219 0 c-972 0 -1219 3 -1215 13 39 98 195 591 226 714 123
495 129 854 16 1130 -52 129 -110 206 -265 353 -212 200 -373 428 -497 702
-318 702 -303 1374 40 1896 77 117 112 160 225 276 273 279 680 514 1097 632
72 20 131 38 133 39 1 1 -13 44 -33 94 -19 51 -35 97 -35 102 0 11 172 64 290
88 83 17 131 25 300 45 73 9 379 -3 465 -19z"/>
<path d="M4915 8293 c-89 -7 -247 -35 -370 -64 -71 -18 -131 -33 -133 -34 -1
-1 49 -138 111 -303 l114 -301 -66 -26 c-136 -54 -315 -181 -449 -318 l-72
-75 -152 109 c-84 60 -156 109 -160 109 -3 0 -22 -24 -42 -54 -125 -188 -238
-538 -252 -776 -9 -146 17 -130 -216 -130 l-201 0 7 -121 c21 -382 135 -723
334 -1002 31 -43 61 -76 66 -74 6 3 75 53 154 112 l143 108 16 -23 c118 -168
351 -356 578 -465 219 -105 370 -144 593 -152 l154 -6 -8 414 -7 414 68 -3
c94 -5 231 28 338 82 l85 43 113 -149 c61 -81 114 -148 116 -148 2 0 22 9 45
21 104 53 225 204 327 408 37 75 70 142 72 149 3 9 54 -5 183 -48 99 -33 181
-58 184 -56 2 2 12 37 22 78 65 255 67 639 5 879 -9 34 -15 62 -13 64 2 1 28
10 58 20 30 10 59 21 63 25 13 11 -46 176 -102 287 -81 162 -194 306 -340 437
-64 56 -166 131 -195 142 -9 4 -29 -15 -56 -51 l-42 -57 -26 25 c-43 39 -112
82 -228 143 -60 32 -111 59 -113 60 -2 2 10 42 28 90 17 47 29 90 26 95 -8 12
-206 75 -297 93 -148 30 -322 41 -463 29z m278 -1292 c81 -32 168 -114 208
-198 94 -197 9 -440 -186 -530 -160 -73 -333 -42 -453 81 -122 124 -152 299
-77 451 49 101 125 166 240 208 67 24 188 18 268 -12z"/>
</g>
</svg>
